<svg width="480" height="128" viewBox="0 0 480 128" fill="none" xmlns="http://www.w3.org/2000/svg">
<path d="M0 24C0 16.5449 0 12.8174 1.21793 9.87707C2.84183 5.95662 5.95662 2.84183 9.87707 1.21793C12.8174 0 16.5449 0 24 0C31.4551 0 35.1826 0 38.1229 1.21793C42.0434 2.84183 45.1582 5.95662 46.7821 9.87707C48 12.8174 48 16.5449 48 24V64C48 72.8366 55.1634 80 64 80C72.8366 80 80 72.8366 80 64V24C80 16.5449 80 12.8174 81.2179 9.87707C82.8418 5.95662 85.9566 2.84183 89.8771 1.21793C92.8174 0 96.5449 0 104 0C111.455 0 115.183 0 118.123 1.21793C122.043 2.84183 125.158 5.95662 126.782 9.87707C128 12.8174 128 16.5449 128 24V102.4C128 111.361 128 115.841 126.256 119.264C124.722 122.274 122.274 124.722 119.264 126.256C115.841 128 111.361 128 102.4 128H47.9058C42.0356 128 39.1005 128 36.3384 127.337C33.8896 126.749 31.5485 125.779 29.4012 124.463C26.9792 122.979 24.9037 120.904 20.7529 116.753L11.2471 107.247C7.09626 103.096 5.02084 101.021 3.53664 98.5988C2.22075 96.4515 1.25104 94.1104 0.663122 91.6616C0 88.8995 0 85.9644 0 80.0942V24Z" fill="#D4FF00"/>
<path d="M144 25.4558C144 16.631 144 12.2186 145.693 8.83721C147.24 5.74661 149.747 3.24014 152.837 1.69285C156.219 0 160.631 0 169.456 0C173.31 0 175.238 0 177.053 0.428963C178.724 0.823868 180.32 1.48514 181.781 2.38742C183.368 3.36752 184.73 4.73029 187.456 7.45584L189.898 9.89806C196.234 16.2343 199.402 19.4025 203.056 20.5895C206.269 21.6336 209.731 21.6336 212.944 20.5895C216.598 19.4025 219.766 16.2343 226.102 9.89807L228.544 7.45584C231.27 4.73029 232.632 3.36752 234.219 2.38742C235.68 1.48514 237.276 0.823868 238.947 0.428963C240.762 0 242.69 0 246.544 0C255.369 0 259.781 0 263.163 1.69285C266.253 3.24014 268.76 5.74661 270.307 8.83721C272 12.2186 272 16.631 272 25.4558C272 29.3104 272 31.2376 271.571 33.0526C271.176 34.7236 270.515 36.32 269.613 37.7808C268.632 39.3675 267.27 40.7303 264.544 43.4558L262.102 45.8981C255.766 52.2343 252.598 55.4025 251.411 59.0557C250.366 62.2692 250.366 65.7308 251.411 68.9443C252.598 72.5975 255.766 75.7657 262.102 82.1019L264.544 84.5442C267.27 87.2697 268.632 88.6325 269.613 90.2192C270.515 91.68 271.176 93.2764 271.571 94.9474C272 96.7624 272 98.6896 272 102.544C272 111.369 272 115.781 270.307 119.163C268.76 122.253 266.253 124.76 263.163 126.307C259.781 128 255.369 128 246.544 128C242.69 128 240.762 128 238.947 127.571C237.276 127.176 235.68 126.515 234.219 125.613C232.632 124.632 231.27 123.27 228.544 120.544L226.102 118.102C219.766 111.766 216.598 108.598 212.944 107.411C209.731 106.366 206.269 106.366 203.056 107.411C199.402 108.598 196.234 111.766 189.898 118.102L187.456 120.544C184.73 123.27 183.368 124.632 181.781 125.613C180.32 126.515 178.724 127.176 177.053 127.571C175.238 128 173.31 128 169.456 128C160.631 128 156.219 128 152.837 126.307C149.747 124.76 147.24 122.253 145.693 119.163C144 115.781 144 111.369 144 102.544C144 98.6896 144 96.7624 144.429 94.9474C144.824 93.2764 145.485 91.68 146.387 90.2192C147.368 88.6325 148.73 87.2697 151.456 84.5442L153.898 82.1019C160.234 75.7657 163.402 72.5975 164.589 68.9443C165.634 65.7308 165.634 62.2692 164.589 59.0557C163.402 55.4025 160.234 52.2343 153.898 45.8981L151.456 43.4558C148.73 40.7303 147.368 39.3675 146.387 37.7808C145.485 36.32 144.824 34.7236 144.429 33.0526C144 31.2376 144 29.3104 144 25.4558Z" fill="#D4FF00"/>
<path d="M336 24C336 16.5449 336 12.8174 334.782 9.87707C333.158 5.95662 330.043 2.84183 326.123 1.21793C323.183 0 319.455 0 312 0C304.545 0 300.817 0 297.877 1.21793C293.957 2.84183 290.842 5.95662 289.218 9.87707C288 12.8174 288 16.5449 288 24V104C288 111.455 288 115.183 289.218 118.123C290.842 122.043 293.957 125.158 297.877 126.782C300.817 128 304.545 128 312 128C319.455 128 323.183 128 326.123 126.782C330.043 125.158 333.158 122.043 334.782 118.123C336 115.183 336 111.455 336 104V24Z" fill="#D4FF00"/>
<path d="M352 104C352 111.455 352 115.183 353.218 118.123C354.842 122.043 357.957 125.158 361.877 126.782C364.817 128 368.545 128 376 128C383.455 128 387.183 128 390.123 126.782C394.043 125.158 397.158 122.043 398.782 118.123C400 115.183 400 111.455 400 104V64C400 55.1634 407.163 48 416 48C424.837 48 432 55.1634 432 64V104C432 111.455 432 115.183 433.218 118.123C434.842 122.043 437.957 125.158 441.877 126.782C444.817 128 448.545 128 456 128C463.455 128 467.183 128 470.123 126.782C474.043 125.158 477.158 122.043 478.782 118.123C480 115.183 480 111.455 480 104V47.9058C480 42.0356 480 39.1005 479.337 36.3384C478.749 33.8896 477.779 31.5485 476.463 29.4012C474.979 26.9792 472.904 24.9037 468.753 20.7529L459.247 11.2471C455.096 7.09626 453.021 5.02084 450.599 3.53664C448.452 2.22075 446.11 1.25104 443.662 0.663122C440.899 0 437.964 0 432.094 0H377.6C368.639 0 364.159 0 360.736 1.7439C357.726 3.27787 355.278 5.72556 353.744 8.73615C352 12.1587 352 16.6392 352 25.6V104Z" fill="#D4FF00"/>
</svg>
